<?xml version="1.0" encoding="UTF-8"?>
<!DOCTYPE svg PUBLIC "-//W3C//DTD SVG 1.1//EN" "http://www.w3.org/Graphics/SVG/1.1/DTD/svg11.dtd">
<!-- Creator: CorelDRAW -->
<svg xmlns="http://www.w3.org/2000/svg" xml:space="preserve" width="260px" height="30px" style="shape-rendering:geometricPrecision; text-rendering:geometricPrecision; image-rendering:optimizeQuality; fill-rule:evenodd; clip-rule:evenodd"
viewBox="0 0 193.628 26.2458"
 xmlns:xlink="http://www.w3.org/1999/xlink">
 <defs>
  <style type="text/css">
   <![CDATA[
    .fil1 {fill:#1FBF6F}
    .fil0 {fill:#1F1A17;fill-rule:nonzero}
   ]]>
  </style>
 </defs>
 <g id="Layer_x0020_1">
  <metadata id="CorelCorpID_0Corel-Layer"/>
  <g id="_117533280">
   <path id="_121286560" class="fil0" d="M58.2191 3.64187l0 12.1941c0,1.0571 -0.0433999,1.95672 -0.13578,2.69947 -0.0867998,0.742138 -0.292639,1.49048 -0.612559,2.25432 -0.525139,1.27906 -1.3981,2.27664 -2.61763,2.99211 -1.21954,0.715478 -2.69885,1.0726 -4.44415,1.0726 -1.57728,0 -2.89415,-0.249239 -3.94567,-0.747718 -1.0571,-0.492899 -1.90216,-1.30076 -2.55253,-2.41179 -0.336039,-0.590859 -0.612559,-1.27348 -0.823978,-2.04848 -0.21142,-0.770038 -0.314339,-1.5066 -0.314339,-2.20596 0,-0.742758 0.20584,-1.30634 0.617519,-1.7019 0.412299,-0.389979 0.943018,-0.585279 1.58844,-0.585279 0.623099,0 1.09492,0.17918 1.41422,0.541879 0.314339,0.357739 0.558619,0.921318 0.726638,1.6802 0.17856,0.818398 0.362699,1.46878 0.541879,1.95672 0.17856,0.487319 0.482359,0.905198 0.905198,1.25178 0.422219,0.352159 1.02424,0.525759 1.80978,0.525759 2.08692,0 3.12789,-1.5283 3.12789,-4.59047l0 -12.8774c0,-0.948598 0.2108,-1.66408 0.628059,-2.14086 0.417879,-0.476779 0.986418,-0.715478 1.70748,-0.715478 0.726018,0 1.30634,0.238699 1.73414,0.715478 0.428419,0.476779 0.645419,1.19226 0.645419,2.14086z"/>
   <path id="_121286920" class="fil0" d="M76.0156 21.8196l-1.11104 -2.92143 -9.46304 0 -1.11104 2.98653c-0.438959,1.16498 -0.807858,1.95114 -1.11662,2.35785 -0.303799,0.406099 -0.807858,0.611939 -1.5066,0.611939 -0.590859,0 -1.11662,-0.21638 -1.5717,-0.650379 -0.455699,-0.433379 -0.683239,-0.926278 -0.683239,-1.47932 0,-0.314339 0.0545599,-0.644799 0.15748,-0.980838 0.10788,-0.341619 0.281479,-0.812818 0.525759,-1.41484l5.95633 -15.1156c0.16802,-0.433379 0.373859,-0.954178 0.611939,-1.56116 0.238699,-0.611939 0.487939,-1.116 0.758878,-1.51714 0.271559,-0.401139 0.628679,-0.726638 1.06826,-0.975878 0.438959,-0.249239 0.980838,-0.373859 1.62564,-0.373859 0.655959,0 1.20342,0.12462 1.64238,0.373859 0.438959,0.249239 0.796698,0.569159 1.06764,0.959758 0.265359,0.389979 0.492899,0.812818 0.682619,1.26232 0.18476,0.450119 0.417879,1.05152 0.704938,1.79986l6.08095 15.0232c0.476779,1.1439 0.715478,1.97284 0.715478,2.49301 0,0.536919 -0.22754,1.02982 -0.677659,1.47994 -0.449499,0.449499 -0.991998,0.677039 -1.62564,0.677039 -0.368899,0 -0.688199,-0.0644799 -0.954178,-0.20026 -0.265359,-0.1302 -0.487939,-0.308759 -0.666499,-0.536919 -0.17918,-0.22754 -0.373859,-0.579699 -0.579699,-1.0509 -0.20646,-0.471819 -0.385019,-0.883498 -0.531339,-1.24682zm-9.33842 -6.46039l6.95887 0 -3.51167 -9.60378 -3.44719 9.60378z"/>
   <path id="_121287688" class="fil0" d="M102.287 17.1101c0,0.737178 -0.17856,1.53884 -0.547459,2.40063 -0.362699,0.867378 -0.937438,1.71306 -1.72298,2.54199 -0.780578,0.828938 -1.78312,1.5066 -2.99769,2.02182 -1.21954,0.520179 -2.63933,0.779958 -4.26001,0.779958 -1.2245,0 -2.34112,-0.11346 -3.34923,-0.346579 -1.00254,-0.23312 -1.9189,-0.596439 -2.73729,-1.08934 -0.818398,-0.493519 -1.57728,-1.13832 -2.26548,-1.94556 -0.612559,-0.726638 -1.1377,-1.54504 -1.5717,-2.45023 -0.433379,-0.904578 -0.758878,-1.87488 -0.975258,-2.89911 -0.217,-1.02424 -0.325499,-2.11916 -0.325499,-3.26801 0,-1.8755 0.270939,-3.55569 0.818398,-5.03501 0.547459,-1.48552 1.32804,-2.74783 2.34174,-3.80493 1.01866,-1.05152 2.20596,-1.85318 3.57181,-2.40621 1.36524,-0.547459 2.82347,-0.823978 4.36789,-0.823978 1.88604,0 3.56127,0.373859 5.03501,1.12716 1.46878,0.753298 2.59655,1.6802 3.38209,2.78565 0.780578,1.10608 1.17614,2.15202 1.17614,3.13843 0,0.536299 -0.1953,1.0137 -0.574119,1.42538 -0.379439,0.411679 -0.840098,0.617519 -1.3826,0.617519 -0.601399,0 -1.05648,-0.14074 -1.3547,-0.427799 -0.303799,-0.282099 -0.639839,-0.774998 -1.00812,-1.47436 -0.617519,-1.15444 -1.33858,-2.01624 -2.16814,-2.59035 -0.834518,-0.569159 -1.85876,-0.856218 -3.07271,-0.856218 -1.9406,0 -3.48005,0.736558 -4.62891,2.20534 -1.14886,1.47436 -1.7236,3.56623 -1.7236,6.27625 0,1.8104 0.254819,3.31699 0.764458,4.51483 0.504059,1.2028 1.22512,2.10304 2.15698,2.69327 0.932478,0.590859 2.02182,0.889078 3.27359,0.889078 1.35532,0 2.49859,-0.336039 3.43665,-1.00812 0.937438,-0.672079 1.64176,-1.6585 2.11854,-2.96483 0.20088,-0.611939 0.450119,-1.11104 0.748338,-1.49544 0.292639,-0.390599 0.769418,-0.580319 1.42538,-0.580319 0.563579,0 1.04594,0.1953 1.44708,0.585279 0.401139,0.390599 0.601399,0.878538 0.601399,1.46382z"/>
   <path id="_121286848" class="fil0" d="M110.028 3.64187l0 8.16228 9.2572 -9.65276c0.444539,-0.466239 0.823978,-0.807858 1.13274,-1.02982 0.314339,-0.22196 0.731598,-0.336039 1.2462,-0.336039 0.677659,0 1.2307,0.20026 1.64796,0.596439 0.417259,0.395559 0.623099,0.877918 0.623099,1.45204 0,0.688819 -0.352159,1.37144 -1.06206,2.0491l-5.72879 5.43057 6.60113 9.46304c0.466239,0.655339 0.818398,1.23008 1.05152,1.71802 0.23312,0.492899 0.347199,0.975258 0.347199,1.4415 0,0.514599 -0.20584,0.964718 -0.612559,1.34974 -0.406719,0.378819 -0.959138,0.568539 -1.6585,0.568539 -0.655959,0 -1.19226,-0.14074 -1.60456,-0.422219 -0.411679,-0.276519 -0.758258,-0.650379 -1.04594,-1.11662 -0.287059,-0.466239 -0.541879,-0.889078 -0.763838,-1.26852l-5.57193 -8.57396 -3.85887 3.69643 0 4.81243c0,0.975878 -0.22196,1.69632 -0.666499,2.16814 -0.444539,0.471199 -1.01928,0.704318 -1.71306,0.704318 -0.406099,0 -0.791118,-0.10788 -1.1594,-0.319299 -0.374479,-0.21142 -0.655959,-0.493519 -0.856838,-0.856838 -0.15128,-0.292639 -0.238079,-0.639219 -0.270939,-1.0292 -0.0322399,-0.390599 -0.0483599,-0.959758 -0.0483599,-1.7019l0 -17.3054c0,-0.948598 0.21142,-1.66408 0.628679,-2.14086 0.417259,-0.476779 0.986418,-0.715478 1.70686,-0.715478 0.704938,0 1.27906,0.23312 1.71864,0.704318 0.438959,0.471819 0.660919,1.19288 0.660919,2.15202z"/>
   <path id="_121287376" class="fil0" d="M131.863 3.88057l5.27309 15.6085 5.28487 -15.717c0.275899,-0.829558 0.482359,-1.40368 0.623099,-1.7236 0.13516,-0.325499 0.363319,-0.612559 0.682619,-0.872338 0.314339,-0.260399 0.748338,-0.390599 1.30076,-0.390599 0.401139,0 0.774998,0.10292 1.11662,0.303799 0.347199,0.20026 0.618139,0.465619 0.812818,0.801658 0.1953,0.331079 0.292639,0.667119 0.292639,1.00812 0,0.23312 -0.0322399,0.482359 -0.0973398,0.753298 -0.0595199,0.270939 -0.14074,0.531339 -0.238699,0.791738 -0.0917598,0.259779 -0.18972,0.525759 -0.281479,0.801658l-5.63703 15.2135c-0.20584,0.579699 -0.406099,1.13274 -0.606979,1.6585 -0.20026,0.520179 -0.433379,0.980838 -0.698739,1.38198 -0.260399,0.395559 -0.612559,0.721058 -1.05152,0.975258 -0.444539,0.254819 -0.980838,0.379439 -1.6151,0.379439 -0.634259,0 -1.17118,-0.12462 -1.61014,-0.373859 -0.438959,-0.249239 -0.796698,-0.574119 -1.06764,-0.980838 -0.265359,-0.411679 -0.504059,-0.872338 -0.704318,-1.39314 -0.20026,-0.514599 -0.401139,-1.06764 -0.601399,-1.64734l-5.54465 -15.0833c-0.0923798,-0.276519 -0.1953,-0.547459 -0.292639,-0.812818 -0.10292,-0.265359 -0.18414,-0.547459 -0.254819,-0.856218 -0.0706798,-0.308759 -0.10292,-0.563579 -0.10292,-0.780578 0,-0.536299 0.217,-1.02982 0.650379,-1.47436 0.433379,-0.443919 0.980838,-0.666499 1.6368,-0.666499 0.802278,0 1.37144,0.243659 1.70686,0.737178 0.331079,0.493519 0.672079,1.27906 1.02486,2.35785z"/>
   <path id="_121288072" class="fil0" d="M149.578 21.9821l0 -18.3402c0,-0.948598 0.217,-1.66408 0.650379,-2.14086 0.433999,-0.476779 0.997578,-0.715478 1.68578,-0.715478 0.704938,0 1.27906,0.23312 1.71802,0.704318 0.438959,0.471819 0.661539,1.19288 0.661539,2.15202l0 18.3402c0,0.959758 -0.22258,1.6802 -0.661539,2.1576 -0.438959,0.476779 -1.01308,0.714858 -1.71802,0.714858 -0.677659,0 -1.23566,-0.238079 -1.67462,-0.720438 -0.438959,-0.482359 -0.661539,-1.19784 -0.661539,-2.15202z"/>
   <path id="_121288096" class="fil0" d="M162.628 3.64187l0 16.9421 9.56038 0c0.758878,0 1.34416,0.18414 1.75088,0.557999 0.411679,0.368899 0.612559,0.835138 0.612559,1.39314 0,0.574739 -0.20088,1.0354 -0.602019,1.39314 -0.401139,0.352159 -0.991378,0.530719 -1.76142,0.530719l-11.3869 0c-1.02424,0 -1.767,-0.22754 -2.2165,-0.682619 -0.450119,-0.455699 -0.672079,-1.19226 -0.672079,-2.20596l0 -17.9285c0,-0.948598 0.21638,-1.66408 0.644799,-2.14086 0.427799,-0.476779 0.991998,-0.715478 1.69074,-0.715478 0.704938,0 1.27906,0.23312 1.71802,0.704318 0.439579,0.471819 0.661539,1.19288 0.661539,2.15202z"/>
   <path id="_121286416" class="fil0" d="M193.629 17.4678c0,1.40864 -0.362699,2.67715 -1.08934,3.79873 -0.720438,1.1222 -1.78312,2.00012 -3.18121,2.63437 -1.39872,0.634259 -3.05163,0.953558 -4.96991,0.953558 -2.29834,0 -4.18995,-0.433379 -5.68539,-1.30076 -1.0571,-0.628679 -1.9189,-1.45762 -2.57981,-2.50355 -0.661539,-1.04098 -0.991998,-2.05406 -0.991998,-3.04047 0,-0.569159 0.20026,-1.06268 0.595819,-1.46878 0.396179,-0.406719 0.900238,-0.612559 1.51776,-0.612559 0.498479,0 0.915738,0.16244 1.26294,0.476779 0.341619,0.319919 0.634259,0.791738 0.877918,1.41484 0.298219,0.742138 0.618139,1.36028 0.964718,1.85876 0.341619,0.493519 0.829558,0.905198 1.45266,1.23008 0.623099,0.319919 1.4415,0.482359 2.46077,0.482359 1.3981,0 2.53083,-0.324879 3.40317,-0.975258 0.872958,-0.650379 1.31192,-1.4632 1.31192,-2.43907 0,-0.769418 -0.23312,-1.3981 -0.704318,-1.88046 -0.471819,-0.482359 -1.08438,-0.850638 -1.82652,-1.1005 -0.748338,-0.254199 -1.7453,-0.525139 -2.99769,-0.812818 -1.66904,-0.389979 -3.07271,-0.850638 -4.19987,-1.37082 -1.12778,-0.525759 -2.02182,-1.24124 -2.68335,-2.14644 -0.660919,-0.905198 -0.991378,-2.02678 -0.991378,-3.37093 0,-1.27906 0.346579,-2.41737 1.04594,-3.41433 0.699359,-0.991998 1.71244,-1.75646 3.03489,-2.29276 1.32246,-0.536919 2.87803,-0.802278 4.66673,-0.802278 1.43096,0 2.66661,0.17918 3.70697,0.531339 1.04594,0.357739 1.90774,0.823358 2.59593,1.41422 0.688819,0.585279 1.19288,1.20342 1.51218,1.84822 0.314339,0.644799 0.477399,1.27348 0.477399,1.89162 0,0.557999 -0.20088,1.06206 -0.596439,1.51218 -0.395559,0.449499 -0.894038,0.677659 -1.4849,0.677659 -0.541879,0 -0.948598,-0.13578 -1.2307,-0.406719 -0.281479,-0.265359 -0.585279,-0.709898 -0.910158,-1.32246 -0.428419,-0.877918 -0.932478,-1.56612 -1.5283,-2.05964 -0.590859,-0.492899 -1.54504,-0.737178 -2.85633,-0.737178 -1.21954,0 -2.20038,0.265979 -2.94313,0.802278 -0.747718,0.536919 -1.1222,1.17614 -1.1222,1.92944 0,0.466239 0.12524,0.867378 0.379439,1.20342 0.254819,0.340999 0.606979,0.634259 1.05152,0.877918 0.444539,0.238699 0.894658,0.433379 1.34974,0.569159 0.455079,0.13516 1.20342,0.336039 2.25494,0.601399 1.3113,0.308759 2.49859,0.644799 3.56065,1.01866 1.06764,0.368899 1.96726,0.818398 2.71497,1.34974 0.748338,0.525759 1.32804,1.19784 1.7453,2.0057 0.417259,0.812818 0.628679,1.8042 0.628679,2.97537z"/>
   <path id="_117532680" class="fil1" d="M35.565 3.75409c-1.17676,-1.17676 -2.54757,-2.10056 -4.07463,-2.74659 -1.581,-0.667739 -3.25871,-1.0075 -4.99037,-1.0075 -1.72856,0.00309999 -3.40627,0.339759 -4.98727,1.00998 -1.52706,0.646659 -2.89787,1.56984 -4.07463,2.74721 -1.17676,1.17676 -2.10056,2.54757 -2.74659,4.07401 -0.668359,1.581 -1.0075,3.25871 -1.0075,4.99037 0,1.72918 0.339139,3.40937 1.0075,4.99037 0.646039,1.52644 1.56984,2.89725 2.74659,4.07401 1.17676,1.17676 2.54757,2.10056 4.07463,2.74721 1.581,0.667739 3.25871,1.00688 4.99037,1.00688 1.72856,0 3.40937,-0.339139 4.99037,-1.00688 1.52644,-0.646659 2.89725,-1.57046 4.07401,-2.74721 1.17738,-1.17676 2.10118,-2.54757 2.74721,-4.07401 0.667739,-1.581 1.00688,-3.25871 1.00688,-4.99037 0,-1.72918 -0.339139,-3.40937 -1.00688,-4.99037 -0.649139,-1.52954 -1.57294,-2.89725 -2.74969,-4.07711zm-16.1584 -0.858698c0.11594,-0.0892798 0.2294,-0.18352 0.347819,-0.266599 0.621859,-0.436479 1.3113,-0.789258 2.01128,-1.08252 1.49234,-0.624959 3.11363,-0.953558 4.73431,-0.953558 1.08004,0 2.18674,0.14508 3.22895,0.430899 -0.411679,0.16678 -0.915118,0.484839 -1.7608,1.20652 -0.703079,-0.0756398 -1.41422,-0.0781198 -2.12784,-0.01116 -0.931858,0.0892798 -1.86868,0.296359 -2.78441,0.619379 -0.827078,0.290779 -1.48118,0.622479 -1.92262,0.875438 -0.676419,-0.242419 -1.54876,-0.527619 -1.97966,-0.667739 0.0675799,0.0217 0.2077,-0.11594 0.252959,-0.15066zm11.6771 3.20415l-2.1917 5.98423 -5.25945 1.00998 -4.34681 -4.48941c0.293259,-2.03608 1.68826,-3.84027 1.68826,-3.84027 0.00805998,-0.00557999 0.918838,-0.662159 2.37831,-1.17118 0.850638,-0.299459 1.71802,-0.490419 2.58229,-0.571019 0.705558,-0.0644799 1.40864,-0.0539399 2.10366,0.0297599l3.04543 3.04791zm-16.3413 6.29361c-0.13454,0.869858 -0.1643,1.77196 -0.0942398,2.67963 -0.10478,-0.21018 -0.18848,-0.387499 -0.250479,-0.530719 -0.0805998,-0.562339 -0.1209,-1.13894 -0.1209,-1.72608 0,-1.8042 0.390599,-3.51973 1.09306,-5.06291 -0.0781198,0.807858 -0.0402999,1.64548 0.01612,2.28098 -0.301319,0.757018 -0.517079,1.54628 -0.643559,2.35909zm1.06392 4.66177c-0.124,-0.455079 -0.269079,-1.11786 -0.342239,-1.91208 -0.0805998,-0.896518 -0.0564199,-1.78808 0.0781198,-2.64181 0.1023,-0.654099 0.266599,-1.2896 0.492899,-1.90154 0.885978,-0.748338 2.06026,-1.1873 2.70939,-1.38942l4.26559 4.40571 -0.447019 4.82855 -4.16887 1.39252c-1.06082,-0.781198 -1.9282,-1.81536 -2.58787,-2.78193zm12.6678 6.99111c-0.928758,0.608219 -3.27731,0.753918 -4.23025,0.788638 -1.0509,-0.19654 -2.07142,-0.533199 -3.03241,-0.996338 -0.840718,-0.403619 -1.63742,-0.904578 -2.36467,-1.49172 0.01364,-0.0241799 -0.11346,-1.30882 -0.10788,-1.77754l4.21227 -1.40554 4.86079 2.10304 0.670219 2.77139c-0.00495999,0.00495999 -0.00805998,0.00805998 -0.00805998,0.00805998zm8.07672 -4.26311c-0.724778,1.0447 -1.59154,2.01686 -2.63375,2.75465 -0.977738,0.689439 -2.28656,0.926898 -3.44967,1.11786 -0.0892798,0.01364 -1.20156,0.19654 -1.20962,0.15872l-0.670219 -2.77387 3.42301 -3.56251 4.53219 -0.417259c0.0700599,0.721678 0.1612,1.77444 0.21514,2.41799 -0.0700599,0.1023 -0.13702,0.2046 -0.20708,0.304419zm0.0700599 -3.62451c-0.01612,0.0266599 -0.0322399,0.0564199 -0.0483599,0.0886598l-4.51359 0.414779 -2.42915 -4.24947 2.19728 -5.99725 3.10247 0.19654c0.659679,0.551799 1.24434,1.1656 1.73972,1.82838 0.619379,0.832038 1.10174,1.7453 1.42972,2.71187 -0.344719,2.99459 -1.13894,4.48631 -1.47808,5.00649zm1.6182 -6.73815c-0.266599,-0.514599 -0.579079,-1.00998 -0.931858,-1.48118 -0.557379,-0.745858 -1.21954,-1.43282 -1.97098,-2.04414 -0.13764,-0.681379 -0.514599,-1.75274 -1.52706,-2.87865 0.0186,0.01364 0.0378199,0.0297599 0.0564199,0.0433999 0.0619999,0.0452599 0.12152,0.0942398 0.18352,0.1395 0.697499,0.549939 1.333,1.1718 1.89596,1.85566 1.0447,1.2741 1.83396,2.75217 2.2971,4.33875 -0.00309999,0.01054 -0.00309999,0.0186 -0.00309999,0.0266599z"/>
   <path id="_117532800" class="fil1" d="M14.7194 23.3442c-0.13888,-0.0371999 -0.292019,-0.0217 -0.426559,0.0557999l-3.11363 1.798c-0.268459,0.15438 -0.360839,0.498479 -0.20522,0.766938 0.155,0.268459 0.498479,0.360839 0.766938,0.20522l3.11363 -1.79738c0.268459,-0.155 0.360839,-0.498479 0.20584,-0.766938 -0.0774998,-0.13454 -0.20212,-0.22444 -0.340999,-0.261639z"/>
   <path id="_117537936" class="fil1" d="M13.0429 20.1115c-0.0774998,-0.13454 -0.20212,-0.22444 -0.340999,-0.261639 -0.13888,-0.0371999 -0.292019,-0.0217 -0.426559,0.0557999l-3.51229 2.02802c-0.268459,0.155 -0.360839,0.498479 -0.20584,0.766938 0.15562,0.269079 0.498479,0.360839 0.767558,0.20584l3.51229 -2.02802c0.269079,-0.15438 0.360839,-0.498479 0.20584,-0.766938z"/>
   <path id="_117526776" class="fil1" d="M7.49702 22.855c-0.13888,-0.0371999 -0.292019,-0.0217 -0.425939,0.0557999l-1.51838 0.876058c-0.268459,0.155 -0.360219,0.499099 -0.20522,0.767558 0.155,0.268459 0.498479,0.360219 0.766938,0.20522l1.51776 -0.876058c0.269079,-0.155 0.360839,-0.499099 0.20584,-0.766938 -0.0774998,-0.13454 -0.20212,-0.22444 -0.340999,-0.261639z"/>
   <path id="_117536856" class="fil1" d="M0.0743998 22.94c0.15562,0.268459 0.498479,0.360219 0.766938,0.20522l9.97888 -5.76103c0.268459,-0.15438 0.360839,-0.498479 0.20522,-0.766938 -0.0774998,-0.13454 -0.20212,-0.22444 -0.340999,-0.261639 -0.13888,-0.0371999 -0.292019,-0.0217 -0.426559,0.0564199l-9.97826 5.76041c-0.268459,0.15562 -0.360219,0.499099 -0.20522,0.767558z"/>
  </g>
 </g>
</svg>
