<?xml version="1.0" encoding="UTF-8"?>
<!DOCTYPE svg PUBLIC "-//W3C//DTD SVG 1.1//EN" "http://www.w3.org/Graphics/SVG/1.1/DTD/svg11.dtd">
<!-- Creator: CorelDRAW -->
<svg xmlns="http://www.w3.org/2000/svg" xml:space="preserve" width="48px" height="32px" style="shape-rendering:geometricPrecision; text-rendering:geometricPrecision; image-rendering:optimizeQuality; fill-rule:evenodd; clip-rule:evenodd"
viewBox="0 0 2.05633 1.37254"
 xmlns:xlink="http://www.w3.org/1999/xlink">
 <defs>
  <style type="text/css">
   <![CDATA[
    .fil0 {fill:#1FBF6F}
   ]]>
  </style>
 </defs>
 <g id="Layer_x0020_1">
  <metadata id="CorelCorpID_0Corel-Layer"/>
  <path class="fil0" d="M1.85987 0.196352c-0.06155,-0.06155 -0.133232,-0.109878 -0.213069,-0.143667 -0.0826746,-0.0349037 -0.170415,-0.0526848 -0.260992,-0.0526848 -0.0903747,0.000151975 -0.178115,0.0177811 -0.26079,0.0528368 -0.0798884,0.0337892 -0.151519,0.0821174 -0.213069,0.143617 -0.06155,0.06155 -0.109878,0.133232 -0.143667,0.21312 -0.0349037,0.0826746 -0.0526848,0.170364 -0.0526848,0.260942 0,0.0904253 0.0177811,0.178267 0.0526848,0.260942 0.0337892,0.0798377 0.0821174,0.151519 0.143667,0.213069 0.06155,0.06155 0.133181,0.109878 0.213069,0.143667 0.0826746,0.0349037 0.170415,0.0526848 0.260942,0.0526848 0.0904253,0 0.178267,-0.0177811 0.260942,-0.0526848 0.0798884,-0.0337892 0.15157,-0.0821174 0.21312,-0.143667 0.0614994,-0.06155 0.109828,-0.133232 0.143617,-0.213069 0.0349543,-0.0826746 0.0526848,-0.170364 0.0526848,-0.260942 0,-0.0904253 -0.0177305,-0.178267 -0.0526848,-0.260942 -0.0339412,-0.0799897 -0.0822187,-0.15157 -0.143769,-0.213221zm-1.85592 1.00329c0.00810535,0.0140324 0.0260384,0.0188449 0.0401215,0.0107396l0.521782 -0.301266c0.0140324,-0.00810535 0.0188956,-0.0260891 0.0107396,-0.0401215 -0.00405268,-0.00699087 -0.0105876,-0.0117021 -0.0178318,-0.0136778 -0.00724416,-0.00192502 -0.0152482,-0.00111449 -0.0222897,0.00293819l-0.521833 0.301266c-0.0139817,0.00810535 -0.0188449,0.0260891 -0.0106889,0.0401215zm0.388145 -0.00445794c-0.00724416,-0.00192502 -0.0152989,-0.00111449 -0.0222897,0.00293819l-0.0793818 0.0458459c-0.0140324,0.00805469 -0.0188449,0.0260384 -0.0107396,0.0400708 0.00810535,0.0140831 0.0260384,0.0188956 0.0401215,0.0107903l0.0793818 -0.0458459c0.0140324,-0.00810535 0.0188449,-0.0260891 0.0107396,-0.0401215 -0.00405268,-0.00699087 -0.0105876,-0.0117528 -0.0178318,-0.0136778zm0.29002 -0.143465c-0.00405268,-0.00699087 -0.0105876,-0.0117021 -0.0178318,-0.0136778 -0.00729482,-0.00192502 -0.0152989,-0.00111449 -0.0222897,0.00293819l-0.183688 0.106079c-0.0140831,0.00805469 -0.0188956,0.0260384 -0.0107903,0.0400708 0.00815601,0.0140831 0.0260891,0.0188956 0.0401215,0.0107903l0.183688 -0.106079c0.0140831,-0.00810535 0.0188956,-0.0260384 0.0107903,-0.0401215zm0.0876391 0.169047c-0.00724416,-0.00192502 -0.0152482,-0.00111449 -0.0222897,0.00293819l-0.162816 0.0940221c-0.0140324,0.00810535 -0.0188956,0.0260891 -0.0107396,0.0401215 0.00810535,0.0140324 0.0260384,0.0188449 0.0401215,0.0107396l0.162816 -0.0940221c0.0140324,-0.00810535 0.0188449,-0.0260891 0.0107396,-0.0401215 -0.00405268,-0.00699087 -0.0105876,-0.0117021 -0.0178318,-0.0136778zm0.245136 -1.06935c0.00607901,-0.00466058 0.0119554,-0.00957445 0.0181864,-0.0139311 0.0325227,-0.022847 0.0685915,-0.0412866 0.105167,-0.0566362 0.078014,-0.0326747 0.162816,-0.0498479 0.247568,-0.0498479 0.0564842,0 0.114387,0.00759877 0.168895,0.022543 -0.0215805,0.00871325 -0.0479229,0.0253292 -0.0921477,0.0630698 -0.0367274,-0.00395136 -0.0739107,-0.00405268 -0.111246,-0.000557243 -0.0487334,0.00466058 -0.0977202,0.0155015 -0.145592,0.0324214 -0.0432623,0.0151975 -0.0774568,0.0325227 -0.100557,0.0457446 -0.0353596,-0.0126646 -0.0810029,-0.0276089 -0.103495,-0.0349037 0.00349543,0.00111449 0.0108409,-0.00607901 0.0132219,-0.00790272zm0.610637 0.167578l-0.11464 0.312917 -0.275025 0.0528368 -0.227304 -0.234751c0.0153495,-0.106484 0.0882977,-0.200861 0.0882977,-0.200861 0.000405268,-0.000253292 0.0480242,-0.0345997 0.124367,-0.0612461 0.0444781,-0.0156535 0.0898174,-0.0256332 0.135055,-0.0298378 0.0368794,-0.00339412 0.0736574,-0.00283687 0.10998,0.00151975l0.15927 0.159422zm-0.854557 0.329128c-0.00704153,0.0454913 -0.00861194,0.0926543 -0.00491387,0.140121 -0.00552177,-0.0109929 -0.0098784,-0.0202634 -0.0131205,-0.0277608 -0.00420465,-0.0294326 -0.00633231,-0.0595743 -0.00633231,-0.0902734 0,-0.094326 0.0204154,-0.184042 0.0571934,-0.264741 -0.00410333,0.0422492 -0.00212766,0.0860687 0.000810535,0.119301 -0.0157548,0.0395643 -0.027001,0.0808002 -0.0336372,0.123353zm0.055623 0.243768c-0.00648428,-0.0238095 -0.0140831,-0.0584599 -0.0178824,-0.0999998 -0.00420465,-0.0469097 -0.00293819,-0.0935155 0.00410333,-0.138146 0.00531914,-0.0341945 0.0139311,-0.0674264 0.0257852,-0.0994425 0.0463018,-0.0391083 0.1077,-0.0620566 0.141641,-0.0726442l0.223049 0.230395 -0.0233535 0.252482 -0.217983 0.0728469c-0.0555217,-0.0408814 -0.100861,-0.0949339 -0.135359,-0.145491zm0.662461 0.365602c-0.0485815,0.0318135 -0.171378,0.0394123 -0.221225,0.041236 -0.0549138,-0.0102837 -0.108308,-0.0278621 -0.158561,-0.0520769 -0.0439715,-0.0211246 -0.0856634,-0.047315 -0.123657,-0.078014 0.000709218,-0.00131712 -0.00592704,-0.0684396 -0.00562309,-0.0929583l0.220212 -0.0735054 0.254204 0.10998 0.0350557 0.144883c-0.000253292,0.000303951 -0.000405268,0.000455926 -0.000405268,0.000455926zm0.42234 -0.222948c-0.0378925,0.0546605 -0.0832318,0.105471 -0.13774,0.144073 -0.0511144,0.0360688 -0.119554,0.0484295 -0.180395,0.0584599 -0.00460992,0.00065856 -0.0628165,0.0102837 -0.0632218,0.00830799l-0.0350557 -0.145086 0.178976 -0.186322 0.237031 -0.0217831c0.00364741,0.0377405 0.00845996,0.0927556 0.0112462,0.126444 -0.00364741,0.00531914 -0.0071935,0.0106889 -0.0108409,0.0159068zm0.00364741 -0.189564c-0.000810535,0.00141844 -0.00167173,0.00298885 -0.00253292,0.00466058l-0.236018 0.0216818 -0.127001 -0.222239 0.114893 -0.313626 0.162208 0.0102837c0.0345491,0.0288753 0.0650961,0.0609928 0.0910332,0.0956432 0.0323708,0.0435156 0.0575987,0.0912359 0.0747719,0.141793 -0.0180344,0.156636 -0.0595743,0.23465 -0.0773555,0.261803zm0.0846503 -0.35233c-0.0139311,-0.0268996 -0.0302431,-0.0528368 -0.0487334,-0.0774568 -0.0291286,-0.039007 -0.063779,-0.0749239 -0.10309,-0.106889 -0.00714284,-0.0356129 -0.026849,-0.0916918 -0.0798377,-0.150557 0.00101317,0.000709218 0.00197568,0.00157041 0.00298885,0.00222897 0.00319148,0.00243161 0.00633231,0.00496453 0.00957445,0.00734548 0.0364741,0.0287233 0.069706,0.0612461 0.0991386,0.0970616 0.0546098,0.0665652 0.0958965,0.143921 0.120111,0.226849 -0.000151975,0.000557243 -0.000151975,0.00101317 -0.000151975,0.00141844z"/>
 </g>
</svg>
